<svg xmlns="http://www.w3.org/2000/svg" viewBox="0 0 725.49 725.49"><rect fill="#20A538" x="396.96" y="146.91" width="206.07" height="725.49" rx="103.04" transform="translate(1076.68 374.4) rotate(135)"></rect><rect fill="#20A538" x="396.96" y="146.91" width="206.07" height="725.49" rx="103.04" transform="translate(369.57 -346.36) rotate(45)"></rect><rect fill="#68B42D" x="396.96" y="142.09" width="206.07" height="725.49" rx="103.04" transform="translate(867.57 -137.26) rotate(90)"></rect><rect fill="#68B42D" x="259.71" width="206.07" height="725.49" rx="103.04"></rect><rect fill="#101418" x="259.71" width="206.07" height="362.74" rx="103.04"></rect><path fill="#101418" d="M532.91,459.54l3.16-3.68C495.83,415.63,386.9,477,427.14,436.8L610.78,253.16a103,103,0,0,1,145.72,0h0a103,103,0,0,1,0,145.72L650.35,505C610.12,545.26,573.15,499.77,532.91,459.54Z" transform="translate(-137.26 -142.09)"></path><path fill="#101418" d="M243.5,253.16h0a103,103,0,0,1,145.72,0l146.49,146.5c-31.19-31.41-23-31-63.22,9.26l-24.88-8.05c-95.29,70.19-103.43,98.68-143.67,58.45L243.5,398.88A103,103,0,0,1,243.5,253.16Z" transform="translate(-137.26 -142.09)"></path><path fill="#101418" d="M242.5,359.51c-10.85,17.21-28.41,19.22,112.62,149.32,102,94.14,229.77,61.33,290.43.67a155.32,155.32,0,0,0,0-219.68C584.89,229.15,288.23,286.92,242.5,359.51Z" transform="translate(-137.26 -142.09)"></path><path fill="#FFFFFF" d="M391.13,385.42c-10.56.63-19.22,9-21.45,19.33a51.78,51.78,0,0,0,10.48,44.59c22.65,28.31,50.15,38,67.13,29.12s21.84-46.1-7.28-71.18C420.6,390.57,404.07,384.64,391.13,385.42Z" transform="translate(-137.26 -142.09)"></path><path fill="#FFFFFF" d="M608.87,385.42c10.56.63,19.22,9,21.45,19.33a51.78,51.78,0,0,1-10.48,44.59c-22.65,28.31-50.15,38-67.13,29.12s-21.84-46.1,7.28-71.18C579.4,390.57,595.93,384.64,608.87,385.42Z" transform="translate(-137.26 -142.09)"></path></svg>